<svg width="108" height="24" viewBox="0 0 108 24" fill="none" xmlns="http://www.w3.org/2000/svg">
    <path d="M2.95954 2.91294H0.0466061L2.95954 0V2.91294Z" fill="#87A8A4" />
    <path d="M5.54882 0H8.46175V2.91294H5.54882V0Z" fill="#FFDAB9" />
    <path d="M0.0466061 5.50221H2.95954V8.41515H0.0466061V5.50221Z" fill="#FFDAB9" />
    <path d="M5.54882 5.50221H8.46175L5.54882 8.41515V5.50221Z" fill="#87A8A4" />
    <path
        d="M0.000127953 11.9754C4.2651e-05 11.9961 0 12.0168 0 12.0375C0 13.7568 0.300356 15.3518 0.901068 16.8225C1.50178 18.2725 2.33035 19.5361 3.38677 20.6132C4.46391 21.6904 5.71712 22.5293 7.1464 23.13C8.57568 23.71 10.1085 24 11.745 24C13.4021 24 14.9349 23.71 16.3435 23.13C17.7728 22.5293 19.0156 21.6904 20.0721 20.6132C21.1492 19.5361 21.9881 18.2725 22.5888 16.8225C23.2103 15.3518 23.521 13.7568 23.521 12.0375C23.521 10.2975 23.2103 8.70256 22.5888 7.25256C21.9881 5.80257 21.1492 4.54936 20.0721 3.49293C19.0156 2.41579 17.7728 1.58722 16.3435 1.00723C14.9349 0.406515 13.4021 0.106159 11.745 0.106159C11.7294 0.106159 11.7139 0.106184 11.6983 0.106235V2.93376C11.7139 2.93369 11.7294 2.93365 11.745 2.93365C13.0292 2.93365 14.1996 3.17186 15.256 3.64829C16.3124 4.104 17.2239 4.7565 17.9903 5.60578C18.7774 6.43435 19.3781 7.39756 19.7924 8.49541C20.2274 9.59327 20.4449 10.774 20.4449 12.0375C20.4449 13.3011 20.2274 14.4922 19.7924 15.6107C19.3781 16.7086 18.7774 17.6822 17.9903 18.5314C17.2239 19.36 16.3124 20.0125 15.256 20.4889C14.1996 20.9447 13.0292 21.1725 11.745 21.1725C10.4814 21.1725 9.32139 20.9447 8.26497 20.4889C7.20855 20.0125 6.28676 19.36 5.49962 18.5314C4.7332 17.6822 4.13248 16.7086 3.69749 15.6107C3.26249 14.4922 3.04499 13.3011 3.04499 12.0375C3.04499 12.0168 3.04505 11.9961 3.04516 11.9754H0.000127953Z"
        fill="black"
    />
    <path
        d="M31.877 23.1921C33.0991 23.7307 34.4455 24 35.9163 24C37.4284 24 38.7541 23.7307 39.8934 23.1921C41.0534 22.6329 41.9544 21.8664 42.5966 20.8929C43.2594 19.9193 43.5909 18.8007 43.5909 17.5372C43.5909 16.0043 43.1248 14.72 42.1927 13.6843C41.2605 12.6486 39.883 11.8511 38.0602 11.2918L34.1763 10.1422C33.0784 9.79005 32.2602 9.28255 31.7216 8.6197C31.1831 7.95684 30.9138 7.20077 30.9138 6.35149C30.9138 5.6265 31.0795 5.00507 31.4109 4.48721C31.7631 3.94864 32.2498 3.54472 32.8713 3.27543C33.5134 2.98543 34.2488 2.84043 35.0773 2.84043C36.4238 2.84043 37.5941 3.18222 38.5884 3.86579C39.5827 4.52864 40.3284 5.51257 40.8255 6.81756L43.4355 5.73007C43.0627 4.65293 42.4827 3.70007 41.6955 2.87151C40.9084 2.02222 39.9452 1.34901 38.8059 0.85187C37.6873 0.354729 36.4341 0.106159 35.0463 0.106159C33.6584 0.106159 32.4156 0.385801 31.3177 0.945085C30.2406 1.48365 29.3913 2.23972 28.7698 3.21329C28.1691 4.16614 27.8688 5.27435 27.8688 6.53792C27.8688 7.98792 28.3141 9.2722 29.2048 10.3908C30.0956 11.5093 31.3798 12.3275 33.0577 12.8454L37.3145 14.1504C38.3709 14.4404 39.1684 14.8754 39.707 15.4554C40.2662 16.0147 40.5459 16.7811 40.5459 17.7547C40.5459 18.4589 40.3491 19.0804 39.9555 19.6189C39.5827 20.1368 39.0545 20.5407 38.3709 20.8307C37.6873 21.1207 36.8898 21.2657 35.9784 21.2657C34.487 21.2657 33.182 20.8722 32.0634 20.085C30.9656 19.2772 30.137 18.1275 29.5777 16.6361L26.9366 17.7236C27.3095 18.9043 27.9206 19.9711 28.7698 20.9239C29.6191 21.8768 30.6548 22.6329 31.877 23.1921Z"
        fill="black"
    />
    <path
        d="M48.0491 0.479013V23.6271H63.1187V20.8307H51.0941V13.4047H62.4973V10.6083H51.0941V3.27543H63.1187V0.479013H48.0491Z"
        fill="black"
    />
    <path
        d="M66.8922 0.479013V23.6271H69.9372V6.30073L82.1171 23.6271H84.665V0.479013H81.5889V17.5669L69.44 0.479013H66.8922Z"
        fill="black"
    />
    <path
        fill-rule="evenodd"
        clip-rule="evenodd"
        d="M95.8904 0.479013L87.5944 23.6271H90.8569L92.7522 18.1897H102.633L104.528 23.6271H107.791L99.4947 0.479013H95.8904ZM97.6926 3.93799L101.67 15.3932H93.7154L97.6926 3.93799Z"
        fill="black"
    />
</svg>