<svg width="60" height="60" viewBox="0 0 60 60" fill="none" xmlns="http://www.w3.org/2000/svg">
  <rect
    width="59.9986"
    height="60.0041"
    rx="29.9993"
    fill="#bbf7d0"
    fill-opacity="0.75"
  />
  <path
    d="M38.75 27.375C38.75 29.8852 37.9352 32.2039 36.5625 34.0852L43.4859 41.0141C44.1695 41.6977 44.1695 42.8078 43.4859 43.4914C42.8023 44.175 41.6922 44.175 41.0086 43.4914L34.0852 36.5625C32.2039 37.9406 29.8852 38.75 27.375 38.75C21.0914 38.75 16 33.6586 16 27.375C16 21.0914 21.0914 16 27.375 16C33.6586 16 38.75 21.0914 38.75 27.375ZM28.4688 21.6875C28.4688 21.0859 27.9766 20.5938 27.375 20.5938C26.7734 20.5938 26.2813 21.0859 26.2813 21.6875V22.4531C25.8656 22.5461 25.45 22.6937 25.0672 22.918C24.307 23.3719 23.6508 24.1648 23.6563 25.3187C23.6617 26.4289 24.3125 27.1289 25.007 27.5445C25.6086 27.9055 26.3578 28.1352 26.9539 28.3102L27.0469 28.3375C27.7359 28.5453 28.2391 28.7094 28.5781 28.9227C28.857 29.0977 28.8953 29.218 28.9008 29.3711C28.9063 29.6445 28.8023 29.8086 28.5781 29.9453C28.3047 30.1148 27.8727 30.2188 27.4078 30.2023C26.8008 30.1805 26.232 29.9891 25.4883 29.7375C25.3625 29.6937 25.2313 29.65 25.0945 29.6062C24.5203 29.4148 23.9023 29.7266 23.7109 30.2953C23.5195 30.8641 23.8313 31.4875 24.4 31.6789C24.5039 31.7117 24.6188 31.75 24.7336 31.7937C25.1875 31.9523 25.7125 32.1328 26.2758 32.2531V33.0516C26.2758 33.6531 26.768 34.1453 27.3695 34.1453C27.9711 34.1453 28.4633 33.6531 28.4633 33.0516V32.2969C28.9008 32.2039 29.3383 32.0508 29.732 31.8047C30.5141 31.318 31.1047 30.4867 31.0883 29.3438C31.0719 28.2336 30.4484 27.5172 29.743 27.0687C29.1141 26.675 28.3266 26.4344 27.7141 26.2484L27.6758 26.2375C26.9758 26.0242 26.4781 25.8711 26.1281 25.6633C25.8438 25.4937 25.8383 25.3953 25.8383 25.2969C25.8383 25.0945 25.9148 24.9414 26.1773 24.7883C26.4727 24.6133 26.9211 24.5094 27.3531 24.5148C27.8781 24.5203 28.4578 24.6352 29.0594 24.7992C29.6445 24.9523 30.2406 24.6078 30.3992 24.0227C30.5578 23.4375 30.2078 22.8414 29.6227 22.6828C29.2672 22.5898 28.8734 22.4969 28.4688 22.4258V21.6656V21.6875Z"
    fill="#16a34a"
  />
</svg>