<svg width="60" height="60" viewBox="0 0 60 60" fill="none" xmlns="http://www.w3.org/2000/svg">
  <rect
    width="60"
    height="60"
    rx="30"
    fill="#bbf7d0"
  />
  <path
    d="M25.5 19.5C25.5 18.6703 26.1703 18 27 18H28.5C29.3297 18 30 18.6703 30 19.5C30.8297 19.5 31.5 20.1703 31.5 21V31.5C31.5 32.3297 30.8297 33 30 33C30 33.8297 29.3297 34.5 28.5 34.5H27C26.1703 34.5 25.5 33.8297 25.5 33C24.6703 33 24 32.3297 24 31.5V21C24 20.1703 24.6703 19.5 25.5 19.5ZM19.5 39H33C36.3141 39 39 36.3141 39 33C39 29.6859 36.3141 27 33 27V24C37.9688 24 42 28.0312 42 33C42 35.3062 41.1328 37.4062 39.7078 39H40.5C41.3297 39 42 39.6703 42 40.5C42 41.3297 41.3297 42 40.5 42H33H19.5C18.6703 42 18 41.3297 18 40.5C18 39.6703 18.6703 39 19.5 39ZM23.25 36H32.25C32.6625 36 33 36.3375 33 36.75C33 37.1625 32.6625 37.5 32.25 37.5H23.25C22.8375 37.5 22.5 37.1625 22.5 36.75C22.5 36.3375 22.8375 36 23.25 36Z"
    fill="#16a34a"
  />
</svg>