<svg width="60" height="60" viewBox="0 0 60 60" fill="none" xmlns="http://www.w3.org/2000/svg">
  <rect
    width="60"
    height="60"
    rx="30"
    fill="#16a34a"
  />
  <path
    d="M21.4286 18C19.5375 18 18 19.5375 18 21.4286V38.5714C18 40.4625 19.5375 42 21.4286 42H38.5714C40.4625 42 42 40.4625 42 38.5714V21.4286C42 19.5375 40.4625 18 38.5714 18H21.4286ZM24.8571 28.2857C25.8054 28.2857 26.5714 29.0518 26.5714 30V35.1429C26.5714 36.0911 25.8054 36.8571 24.8571 36.8571C23.9089 36.8571 23.1429 36.0911 23.1429 35.1429V30C23.1429 29.0518 23.9089 28.2857 24.8571 28.2857ZM28.2857 24.8571C28.2857 23.9089 29.0518 23.1429 30 23.1429C30.9482 23.1429 31.7143 23.9089 31.7143 24.8571V35.1429C31.7143 36.0911 30.9482 36.8571 30 36.8571C29.0518 36.8571 28.2857 36.0911 28.2857 35.1429V24.8571ZM35.1429 31.7143C36.0911 31.7143 36.8571 32.4804 36.8571 33.4286V35.1429C36.8571 36.0911 36.0911 36.8571 35.1429 36.8571C34.1946 36.8571 33.4286 36.0911 33.4286 35.1429V33.4286C33.4286 32.4804 34.1946 31.7143 35.1429 31.7143Z"
    fill="white" />
</svg>