<svg width="60" height="60" viewBox="0 0 60 60" fill="none" xmlns="http://www.w3.org/2000/svg">
  <rect
    width="60"
    height="60"
    rx="30"
    fill="#bbf7d0"
  />
  <path
    d="M24.5444 18.1961C24.4922 18.1339 24.4301 18.0846 24.3617 18.051C24.2933 18.0173 24.22 18 24.146 18C24.072 18 23.9987 18.0173 23.9303 18.051C23.8619 18.0846 23.7998 18.1339 23.7476 18.1961L20.7616 21.7125L19.6976 20.4848C19.6453 20.4227 19.5832 20.3733 19.5148 20.3397C19.4465 20.3061 19.3732 20.2887 19.2991 20.2887C19.2251 20.2887 19.1518 20.3061 19.0834 20.3397C19.015 20.3733 18.953 20.4227 18.9007 20.4848L18.1648 21.357C18.1123 21.4189 18.0707 21.4925 18.0423 21.5735C18.0139 21.6545 17.9993 21.7414 17.9993 21.8292C17.9993 21.9169 18.0139 22.0038 18.0423 22.0848C18.0707 22.1658 18.1123 22.2394 18.1648 22.3013L20.396 24.9345C20.5074 25.0595 20.6551 25.1292 20.8085 25.1292C20.962 25.1292 21.1096 25.0595 21.221 24.9345L21.9523 24.0679L25.3366 20.0571C25.442 19.932 25.5016 19.7628 25.5025 19.586C25.5034 19.4092 25.4455 19.2392 25.3413 19.1127L24.5444 18.1961ZM24.5444 27.0399C24.4922 26.9778 24.4301 26.9285 24.3617 26.8948C24.2933 26.8612 24.22 26.8438 24.146 26.8438C24.072 26.8438 23.9987 26.8612 23.9303 26.8948C23.8619 26.9285 23.7998 26.9778 23.7476 27.0399L20.7616 30.5786L19.6976 29.3509C19.6453 29.2887 19.5832 29.2394 19.5148 29.2058C19.4465 29.1721 19.3732 29.1548 19.2991 29.1548C19.2251 29.1548 19.1518 29.1721 19.0834 29.2058C19.015 29.2394 18.953 29.2887 18.9007 29.3509L18.1648 30.223C18.1123 30.285 18.0707 30.3585 18.0423 30.4396C18.0139 30.5206 17.9993 30.6075 17.9993 30.6952C17.9993 30.783 18.0139 30.8698 18.0423 30.9509C18.0707 31.0319 18.1123 31.1055 18.1648 31.1674L20.3913 33.8061C20.5028 33.9311 20.6504 34.0008 20.8038 34.0008C20.9573 34.0008 21.1049 33.9311 21.2163 33.8061L21.9523 32.934L25.3366 28.9231C25.4417 28.799 25.5012 28.6307 25.5021 28.4548C25.503 28.279 25.4452 28.1099 25.3413 27.9843L24.5444 27.0399ZM21.0007 36.667C19.7585 36.667 18.7226 37.8614 18.7226 39.3335C18.7226 40.8056 19.7585 42 21.0007 42C21.5974 42 22.1697 41.7191 22.5917 41.219C23.0136 40.7189 23.2507 40.0407 23.2507 39.3335C23.2507 38.6263 23.0136 37.9481 22.5917 37.448C22.1697 36.948 21.5974 36.667 21.0007 36.667ZM41.2507 37.5559H27.7507C27.5518 37.5559 27.361 37.6495 27.2204 37.8162C27.0797 37.9829 27.0007 38.209 27.0007 38.4447V40.2223C27.0007 40.4581 27.0797 40.6842 27.2204 40.8508C27.361 41.0175 27.5518 41.1112 27.7507 41.1112H41.2507C41.4496 41.1112 41.6404 41.0175 41.781 40.8508C41.9217 40.6842 42.0007 40.4581 42.0007 40.2223V38.4447C42.0007 38.209 41.9217 37.9829 41.781 37.8162C41.6404 37.6495 41.4496 37.5559 41.2507 37.5559ZM41.2507 19.7793H27.7507C27.5518 19.7793 27.361 19.8729 27.2204 20.0396C27.0797 20.2063 27.0007 20.4324 27.0007 20.6681V22.4458C27.0007 22.6815 27.0797 22.9076 27.2204 23.0743C27.361 23.241 27.5518 23.3346 27.7507 23.3346H41.2507C41.4496 23.3346 41.6404 23.241 41.781 23.0743C41.9217 22.9076 42.0007 22.6815 42.0007 22.4458V20.6681C42.0007 20.4324 41.9217 20.2063 41.781 20.0396C41.6404 19.8729 41.4496 19.7793 41.2507 19.7793ZM41.2507 28.6676H27.7507C27.5518 28.6676 27.361 28.7612 27.2204 28.9279C27.0797 29.0946 27.0007 29.3207 27.0007 29.5564V31.3341C27.0007 31.5698 27.0797 31.7959 27.2204 31.9626C27.361 32.1292 27.5518 32.2229 27.7507 32.2229H41.2507C41.4496 32.2229 41.6404 32.1292 41.781 31.9626C41.9217 31.7959 42.0007 31.5698 42.0007 31.3341V29.5564C42.0007 29.3207 41.9217 29.0946 41.781 28.9279C41.6404 28.7612 41.4496 28.6676 41.2507 28.6676Z"
    fill="#16a34a" />
</svg>