<svg
    width="1512"
    height="168"
    viewBox="0 0 1512 168"
    fill="none"
    xmlns="http://www.w3.org/2000/svg"
>
    <path
        d="M1512 100.8L1449 112.035C1386 122.85 1260 145.95 1134 156.765C1008 168 882 168 756 145.635C630 122.85 504 78.75 378 78.435C252 78.75 126 122.85 63.0001 145.635L6.86646e-05 168V7.62939e-06L63.0001 7.62939e-06C126 7.62939e-06 252 7.62939e-06 378 7.62939e-06C504 7.62939e-06 630 7.62939e-06 756 7.62939e-06C882 7.62939e-06 1008 7.62939e-06 1134 7.62939e-06C1260 7.62939e-06 1386 7.62939e-06 1449 7.62939e-06H1512V100.8Z"
        fill="#D7E7E7"
    />
</svg>