<svg width="111" height="24" viewBox="0 0 111 24" fill="none" xmlns="http://www.w3.org/2000/svg">
<path d="M3.0263 2.91294H0.0476574L3.0263 0V2.91294Z" fill="black"/>
<path d="M5.67398 0H8.65263V2.91294H5.67398V0Z" fill="black"/>
<path d="M0.0476574 5.50221H3.0263V8.41515H0.0476574V5.50221Z" fill="black"/>
<path d="M5.67398 5.50221H8.65263L5.67398 8.41515V5.50221Z" fill="black"/>
<path d="M0.000130839 11.9754C4.36131e-05 11.9961 0 12.0168 0 12.0375C0 13.7568 0.307131 15.3518 0.921394 16.8225C1.53566 18.2725 2.38291 19.5361 3.46317 20.6132C4.56461 21.6904 5.84608 22.5293 7.30761 23.13C8.76913 23.71 10.3366 24 12.0099 24C13.7044 24 15.2718 23.71 16.7122 23.13C18.1737 22.5293 19.4446 21.6904 20.5248 20.6132C21.6263 19.5361 22.4841 18.2725 23.0984 16.8225C23.7338 15.3518 24.0516 13.7568 24.0516 12.0375C24.0516 10.2975 23.7338 8.70256 23.0984 7.25256C22.4841 5.80257 21.6263 4.54936 20.5248 3.49293C19.4446 2.41579 18.1737 1.58722 16.7122 1.00723C15.2718 0.406515 13.7044 0.106159 12.0099 0.106159C11.994 0.106159 11.9781 0.106184 11.9622 0.106235V2.93376C11.9781 2.93369 11.994 2.93365 12.0099 2.93365C13.3231 2.93365 14.5199 3.17186 15.6002 3.64829C16.6804 4.104 17.6124 4.7565 18.3961 5.60578C19.201 6.43435 19.8153 7.39756 20.2389 8.49541C20.6837 9.59327 20.9061 10.774 20.9061 12.0375C20.9061 13.3011 20.6837 14.4922 20.2389 15.6107C19.8153 16.7086 19.201 17.6822 18.3961 18.5314C17.6124 19.36 16.6804 20.0125 15.6002 20.4889C14.5199 20.9447 13.3231 21.1725 12.0099 21.1725C10.7178 21.1725 9.53166 20.9447 8.4514 20.4889C7.37115 20.0125 6.42858 19.36 5.62368 18.5314C4.83996 17.6822 4.2257 16.7086 3.78089 15.6107C3.33608 14.4922 3.11368 13.3011 3.11368 12.0375C3.11368 12.0168 3.11374 11.9961 3.11385 11.9754H0.000130839Z" fill="black"/>
<path d="M32.596 23.1921C33.8457 23.7307 35.2225 24 36.7264 24C38.2727 24 39.6283 23.7307 40.7933 23.1921C41.9794 22.6329 42.9008 21.8664 43.5575 20.8929C44.2353 19.9193 44.5742 18.8007 44.5742 17.5372C44.5742 16.0043 44.0976 14.72 43.1444 13.6843C42.1912 12.6486 40.7827 11.8511 38.9187 11.2918L34.9472 10.1422C33.8246 9.79005 32.9879 9.28255 32.4372 8.6197C31.8865 7.95684 31.6111 7.20077 31.6111 6.35149C31.6111 5.6265 31.7806 5.00507 32.1195 4.48721C32.4795 3.94864 32.9773 3.54472 33.6128 3.27543C34.2694 2.98543 35.0213 2.84043 35.8686 2.84043C37.2454 2.84043 38.4421 3.18222 39.4588 3.86579C40.4755 4.52864 41.2381 5.51257 41.7464 6.81756L44.4153 5.73007C44.034 4.65293 43.441 3.70007 42.6361 2.87151C41.8312 2.02222 40.8462 1.34901 39.6812 0.85187C38.5374 0.354729 37.256 0.106159 35.8368 0.106159C34.4176 0.106159 33.1468 0.385801 32.0241 0.945085C30.9227 1.48365 30.0543 2.23972 29.4188 3.21329C28.8046 4.16614 28.4974 5.27435 28.4974 6.53792C28.4974 7.98792 28.9528 9.2722 29.8636 10.3908C30.7744 11.5093 32.0877 12.3275 33.8034 12.8454L38.1562 14.1504C39.2364 14.4404 40.0519 14.8754 40.6026 15.4554C41.1745 16.0147 41.4605 16.7811 41.4605 17.7547C41.4605 18.4589 41.2593 19.0804 40.8568 19.6189C40.4755 20.1368 39.9354 20.5407 39.2364 20.8307C38.5374 21.1207 37.722 21.2657 36.79 21.2657C35.2649 21.2657 33.9305 20.8722 32.7867 20.085C31.6641 19.2772 30.8168 18.1275 30.2449 16.6361L27.5443 17.7236C27.9255 18.9043 28.5504 19.9711 29.4188 20.9239C30.2873 21.8768 31.3463 22.6329 32.596 23.1921Z" fill="black"/>
<path d="M49.133 0.479013V23.6271H64.5425V20.8307H52.2467V13.4047H63.907V10.6083H52.2467V3.27543H64.5425V0.479013H49.133Z" fill="black"/>
<path d="M68.4011 0.479013V23.6271H71.5148V6.30073L83.9694 23.6271H86.5748V0.479013H83.4293V17.5669L71.0064 0.479013H68.4011Z" fill="black"/>
<path fill-rule="evenodd" clip-rule="evenodd" d="M98.0535 0.479013L89.5703 23.6271H92.9064L94.8445 18.1897H104.948L106.886 23.6271H110.222L101.739 0.479013H98.0535ZM99.8963 3.93799L103.963 15.3932H95.8294L99.8963 3.93799Z" fill="black"/>
</svg>
